# xmcd
#
# Track frame offsets: 
#        150
#        13462
#        27666
#        42299
#        54018
#        66186
#        80280
#        96173
#        111858
#        123981
#        138149
#        151777
#        165140
#        178081
#        195312
#        208765
#        223762
#        240908
#        253811
#        276348
#        292717
#
# Disc length: 4127 seconds
#
# Revision: 4
# Processed by: cddbd v1.5.2PL0 Copyright (c) Steve Scherf et al.
# Submitted via: ExactAudioCopy v1.0b1
#
DISCID=1e101d15
DTITLE=Lacy J. Dalton - Anthology
DYEAR=2000
DGENRE=Country
TTITLE0=Crazy Blue Eyes
TTITLE1=Tennessee Waltz
TTITLE2=Losing Kind Of Love
TTITLE3=Hard Times
TTITLE4=Hillbilly Girl With The Blues
TTITLE5=Whisper
TTITLE6=Takin' It Easy
TTITLE7=Everybody Makes Mistakes
TTITLE8=Slow Down
TTITLE9=16th Avenue
TTITLE10=It's A Dirty Job
TTITLE11=Dream Baby (How Long Must I Dream)
TTITLE12=If That Ain't Love
TTITLE13=You Can't Run Away From Your Heart
TTITLE14=Size Seven Round (Made Of Gold)
TTITLE15=Working Class Man
TTITLE16=This Ol' Town
TTITLE17=The Heart
TTITLE18=Hard Luck Ace
TTITLE19=Black Coffee
TTITLE20=Don't Fall In Love With Me
EXTD=
EXTT0=
EXTT1=
EXTT2=
EXTT3=
EXTT4=
EXTT5=
EXTT6=
EXTT7=
EXTT8=
EXTT9=
EXTT10=
EXTT11=
EXTT12=
EXTT13=
EXTT14=
EXTT15=
EXTT16=
EXTT17=
EXTT18=
EXTT19=
EXTT20=
PLAYORDER=
